<svg xmlns="http://www.w3.org/2000/svg" width="256" height="256"><path fill-opacity=".016" d="M0 128.004v128.004l128.25-.254 128.25-.254.254-127.75L257.008 0H0v128.004m.485.496c0 70.4.119 99.053.265 63.672.146-35.38.146-92.98 0-128C.604 29.153.485 58.1.485 128.5" fill="#1976D2" fill-rule="evenodd"/><path fill-opacity=".338" d="M109.212 1.617c-41.842 6.51-78.413 33.94-96.644 72.485C7.13 85.601 3.596 97.536 1.55 111.317c-1.818 12.246-1.932 19.119-.51 30.709 3.784 30.836 15.529 54.918 37.319 76.517 20.307 20.128 40.7 30.755 69.141 36.03 6.981 1.294 12.478 1.55 24.5 1.138 22.475-.77 33.742-3.564 53.5-13.271 30.387-14.928 54-42.263 64.304-74.44 6.616-20.66 8.56-39.754 5.701-56-3.123-17.741-7.428-31.032-14.166-43.736C223.184 34.038 190.297 9.885 151.8 2.505c-11.686-2.24-31.27-2.649-42.588-.888M93 63c-1.954 1.954-2 3.333-2 60.5V182h-5V91H65.955c-19.95 0-20.058.012-22.5 2.455L41 95.909V182l-5.75.002-5.75.003v13.996h98.75L227 196v-14h-11V94.113l-2.223-1.556C211.943 91.272 208.013 91 191.288 91H171.02l-.26 45.25-.26 45.25H165.935l.048-56.644c.048-56.15-.211-61.109-3.296-63.07-.653-.416-16.15-.762-34.437-.771C96.323 61.001 94.92 61.08 93 63m30.5.92c-8.324 2.043-15.182 7.68-18.236 14.991-2.148 5.141-1.859 15.002.58 19.784 8.123 15.922 27.302 19.227 39.69 6.839 9.327-9.328 10.142-22.404 2.055-33.006-4.706-6.17-16.644-10.436-24.089-8.608m-.657 13.58.358 4.5H113v11.89l4.75.305 4.75.305.072 4.5.073 4.5 5.677.3 5.678.3V94h10.1l-.3-5.75-.3-5.75-4.5-.072-4.5-.071-.305-4.679L133.89 73h-11.404l.357 4.5M52 113.5v5.5h10v-11H52v5.5m15.198-.25.302 5.25h10l.302-5.25.303-5.25h-11.21l.303 5.25M182 113.5v5.5h10v-11h-10v5.5m15.402-4.105c-.294.767-.393 3.129-.219 5.25l.317 3.855h10l.302-5.25.303-5.25h-5.084c-3.426 0-5.258.455-5.619 1.395M.36 128c0 5.225.169 7.363.375 4.75.206-2.613.206-6.888 0-9.5S.36 122.775.36 128M52 130.5v5.5h10v-11H52v5.5m15.198-.25.302 5.25h10l.302-5.25.303-5.25h-11.21l.303 5.25M182 130.5v5.5h10v-11h-10v5.5m15.402-4.105c-.294.767-.393 3.129-.219 5.25l.317 3.855h10l.302-5.25.303-5.25h-5.084c-3.426 0-5.258.455-5.619 1.395M52 148v5h10v-10H52v5m15 0v5h11v-10H67v5m115 0v5h10v-10h-10v5m15 0v5h11v-10h-11v5m-83 14.5V181h30v-37h-30v18.5" fill="#1976D2" fill-rule="evenodd"/><path fill-opacity=".344" d="M118 1.183c-22.437 1.823-44.469 9.642-62.138 22.05-9.571 6.722-22.709 19.434-29.776 28.813C15.517 66.073 6.428 86.623 2.887 104.5c-.88 4.443-1.377 13.576-1.359 25 .025 16.469.268 18.936 2.865 29 8.272 32.068 26.226 57.734 52.848 75.551 32.736 21.908 72.533 27.614 109.759 15.737 54.58-17.413 91.052-69.345 88.692-126.288-1.115-26.921-9.303-50.122-25.201-71.417C204.129 16.775 161.802-2.377 118 1.183M96 60.689c-.825.315-2.287 1.258-3.25 2.096-1.629 1.42-1.75 5.551-1.75 59.87V181h-5V91H65.5c-19.167 0-20.63.13-22.5 2-1.938 1.938-2 3.333-2 44.95v42.95l-5.75.3-5.75.3-.294 7.25-.294 7.25h199.176l-.294-7.25-.294-7.25-5.25-.302-5.25-.303v-42.312c0-41.293-.05-42.377-2.073-44.948L212.855 91h-41.834l-.261 44.75-.26 44.75-2.25.32-2.25.319V123.18c0-55.564-.079-58.056-1.911-60.319l-1.91-2.361-32.34-.191c-17.786-.105-33.014.066-33.839.38m22.478 5.182c-4.647 2.111-9.841 6.997-12.117 11.397-.869 1.681-1.818 5.68-2.109 8.888-.889 9.802 3.54 18.322 12.103 23.285 20.15 11.678 44.069-9.956 34.271-30.997-5.63-12.09-20.451-17.887-32.148-12.573m3.937 7.046c-.228.229-.415 2.366-.415 4.75V82h-9v13h9v9h13.201l-.358-4.5-.357-4.5H144V82h-8.89l-.305-4.618-.305-4.619-5.835-.131c-3.209-.073-6.021.056-6.25.285M52 112.945V118h10.11l-.305-4.75-.305-4.75-4.75-.305-4.75-.305v5.055M68 113v5h9v-10h-9v5m114.667-4.333c-.367.366-.667 2.616-.667 5V118h10v-10h-4.333c-2.384 0-4.634.3-5 .667M198 112.945V118h10.11l-.305-4.75-.305-4.75-4.75-.305-4.75-.305v5.055M68 130.25V135h9v-9.5h-9v4.75m129.999 0L198 135h10.11l-.305-4.632-.305-4.633-4.751-.117-4.751-.118.001 4.75M52 130.5v4.5h10v-9H52v4.5m130 0v4.5h10v-9h-10v4.5M52 148v5h10v-10H52v5m16 0v5h9v-10h-9v5m114 0v5h10v-10h-10v5m16 0v5h10v-10h-10v5m-83 14.75V181h29.045l-.272-18.058-.273-18.059-14.25-.191L115 144.5v18.25" fill="#1976D2" fill-rule="evenodd"/><path fill-opacity=".247" d="M114.5 1.611C89.433 5.299 70.296 12.902 52.418 26.275-2.238 67.158-15.033 142.171 22.872 199.5c11.122 16.821 32.814 35.417 51.191 43.884 15.985 7.364 38.705 12.615 54.588 12.616 15.87 0 39.98-5.783 54.849-13.157 38.781-19.232 63.128-52.222 70.541-95.582 2.483-14.527 2.473-24.055-.042-38.767-4.982-29.141-16.886-51.643-38.102-72.02C197.878 19.167 178.044 8.707 153.24 3.43c-7.449-1.584-32.377-2.755-38.74-1.819M93.189 62.039 91 64.078v58.461C91 179.232 90.943 181 89.107 181c-1.041 0-2.166-.712-2.5-1.582-.334-.87-.607-21.12-.607-45V91H65.155c-18.924 0-20.998.169-22.5 1.829-1.486 1.642-1.655 6.232-1.655 45V181H28.916l.292 7.75.292 7.75h198l.292-7.75.292-7.75H217v-43c0-41.667-.062-43.062-2-45-1.876-1.876-3.333-2-23.5-2H170v45c0 44.333-.03 45-2 45-1.977 0-2-.667-2-58.427V64.145l-2.635-2.072C160.822 60.072 159.598 60 128.054 60c-31.503 0-32.756.073-34.865 2.039M119 66.081c-18.846 8.531-19.956 33.549-1.925 43.363 15.873 8.64 35.23-2.876 35.282-20.991.051-17.455-17.788-29.42-33.357-22.372M122 77v5h-10v13h10v9h13v-9h9V82h-9V72h-13v5m-70 36.5v4.5h10v-9H52v4.5m16 0v4.5h9v-9h-9v4.5m114 0v4.5h10v-9h-10v4.5m16 0v4.5h9v-9h-9v4.5m-146 17v4.5h10v-9H52v4.5m16 0v4.5h9v-9h-9v4.5m114 0v4.5h10.092l-.233-4.5-.233-4.5H182v4.5m16 0v4.5h9v-9h-9v4.5M52 148.055v5.055l4.75-.305 4.75-.305.305-4.75.305-4.75H52v5.055M68 148v5h9v-10h-9v5m114 0v5h10v-10h-10v5m16 0v5h9v-10h-9v5m-83 15v18h27.913l.293-18.001.294-18.001-14.25.001L115 145v18" fill="#1976D2" fill-rule="evenodd"/></svg>